<svg width="1440" height="1264" fill="none" xmlns="http://www.w3.org/2000/svg"><g stroke-miterlimit="10"><path opacity=".2" d="M-307.911 560.312c72.719-73.065 161.421-145.822 265.173-146.374 72.676-.196 143.492 38.526 182.725 97.878 30.699 46.437 43.258 102.413 75.603 145.85 40.622 54.436 111.474 83.855 182.862 78.741 80.673-5.612 153.853-54.049 233.648-53.599 59.809.336 116.224 28.486 163.486 64.56 51.466 39.293 89.256 88.341 140.29 125.697 42.635 31.132 92.384 53.766 141.354 45.369 48.51-8.312 89.78-50.14 106.37-98.014 15.69-45.24 17.31-94.822 11.87-143.092-4.89-43.402-10.51-88.472 4.41-128.214 16.65-44.396 56.45-77.004 98.13-103.08 40.91-25.477 84.76-45.836 121.79-75.216 47.03-37.337 81.89-89.225 97.86-146.495" stroke="#000"/><path opacity=".2" d="M-306.557 564.077c75.543-73.822 164.934-148.961 270.89-150.212 73.336-.869 145.398 37.699 183.923 98.434 29.828 47.028 39.847 104.46 70.823 150.759 38.823 58.049 110.737 93.003 181.819 88.365 81.692-5.332 155.651-58.1 237.454-59.441 61.687-1.015 119.795 27.725 168.828 63.835 49.032 36.109 91.643 80.016 140.597 116.24 39.745 29.419 87.883 54.492 137.523 47.267 48.6-7.077 88.81-45.114 108.27-89.526 19.45-44.396 20.94-94.287 16.02-142.089-4.24-41.221-12.88-83.629-.84-123.55 13.82-45.778 52.79-80.367 94.07-105.83 41.31-25.468 86.71-44.536 125.57-73.478 49.65-36.97 86.97-89.688 104.87-148.102" stroke="#007163"/></g></svg>