<svg width="156" height="72" fill="none" xmlns="http://www.w3.org/2000/svg"><g clip-path="url(#clip0_18_416)"><path d="M13.294 64.43c-.006 0-.006.009 0 .009s.006-.01 0-.01z" fill="#534741"/><path d="M66.661 26.206l-1.747.083c.817 2.806 1.432 6.258 1.432 9.211 0 4.163-.812 8.202-2.412 12.004a30.725 30.725 0 01-6.575 9.801 30.583 30.583 0 01-9.752 6.61 30.374 30.374 0 01-11.943 2.423 30.38 30.38 0 01-11.944-2.424 30.552 30.552 0 01-9.752-6.609 30.754 30.754 0 01-6.575-9.8A30.795 30.795 0 014.98 35.5c0-4.163.812-8.202 2.412-12.004a30.724 30.724 0 016.575-9.801 30.602 30.602 0 019.755-6.612A30.373 30.373 0 0135.666 4.66c6.31 0 12.372 1.91 17.526 5.522A30.76 30.76 0 0163.82 23.215H51.39v1.662h14.871l-.436-1.13A32.408 32.408 0 0054.139 8.82 32.049 32.049 0 0035.664 3c-4.365 0-8.6.86-12.586 2.553a32.224 32.224 0 00-10.279 6.967A32.431 32.431 0 005.87 22.848a32.417 32.417 0 00-2.54 12.65 32.466 32.466 0 009.47 22.98 32.231 32.231 0 0010.278 6.964 31.975 31.975 0 0012.586 2.553c4.364 0 8.6-.86 12.585-2.553a32.262 32.262 0 0010.279-6.965 32.411 32.411 0 006.929-10.33 32.417 32.417 0 002.54-12.65 33.67 33.67 0 00-1.336-9.291z" fill="#007163"/><path d="M50.968 21.99H45.22a.42.42 0 00-.42.422v3.06c0 .232.19.422.42.422h5.747a.424.424 0 00.414-.344.368.368 0 00.008-.077v-3.06c0-.012-.003-.023-.003-.037a.422.422 0 00-.42-.386z" fill="#A67C52"/><path d="M58.465 22.065c-6.35-10.711-19.787-16.228-32.773-11.174C16.901 14.312 9.34 24.93 8.967 34.397 8.17 54.651 28.485 68.563 47.171 59.914c8.002-3.706 13.598-11.285 14.78-20.06.686-5.084.02-9.813-1.62-13.976h-7.813v.356a.415.415 0 01-.415.416h-7.897a.415.415 0 01-.414-.416v-4.712c0-.229.183-.416.414-.416h7.897c.228 0 .415.184.415.416v.543h5.947zM21.78 52.718c-3.753-3.022-6.11-7.334-6.636-12.137l2.003-.22a15.972 15.972 0 005.892 10.777 15.816 15.816 0 0011.749 3.433l.22 2.012c-4.777.53-9.476-.843-13.228-3.865zm-1.383-13.342l2.403-.267c.667 6.085 6.117 10.477 12.171 9.807l.267 2.415c-7.371.819-14.029-4.546-14.84-11.955zm23.555-1.965a8.073 8.073 0 01-4.057 5.745c-6.483 3.576-13.895-1.709-12.68-9.043a8.073 8.073 0 014.057-5.745c6.488-3.576 13.9 1.709 12.681 9.043z" fill="#1A2535"/><path d="M3.648 53.079l-.066-.488a1.846 1.846 0 00-.469-.808c-.123-.096-.247-.19-.37-.287a1.826 1.826 0 00-.919-.25 1.398 1.398 0 00-.702.157 1.395 1.395 0 00-.587.377 1.352 1.352 0 00-.376.59 1.361 1.361 0 00-.156.706l.065.488c.088.312.245.58.47.808l.37.287c.285.165.59.248.919.25a1.39 1.39 0 00.702-.157c.225-.074.423-.2.587-.377a1.35 1.35 0 00.376-.59 1.41 1.41 0 00.156-.706z" fill="#007163"/></g><path d="M86.096 29.216c-1.12 0-2.056-.24-2.808-.72-.736-.48-1.296-1.144-1.68-1.992-.384-.848-.608-1.832-.672-2.952l2.4-.648c.048.688.152 1.352.312 1.992.176.64.456 1.168.84 1.584.384.4.92.6 1.608.6.704 0 1.232-.192 1.584-.576.368-.4.552-.968.552-1.704 0-.88-.2-1.584-.6-2.112-.4-.544-.904-1.088-1.512-1.632l-3.264-2.88c-.64-.56-1.112-1.168-1.416-1.824-.304-.672-.456-1.496-.456-2.472 0-1.424.408-2.528 1.224-3.312.816-.784 1.928-1.176 3.336-1.176.768 0 1.44.104 2.016.312.592.192 1.08.496 1.464.912.4.416.712.944.936 1.584.24.624.4 1.36.48 2.208l-2.304.624a9.314 9.314 0 00-.288-1.752c-.144-.544-.4-.976-.768-1.296-.352-.336-.864-.504-1.536-.504s-1.2.184-1.584.552c-.368.352-.552.88-.552 1.584 0 .592.096 1.08.288 1.464.208.384.536.776.984 1.176l3.288 2.88c.736.64 1.384 1.408 1.944 2.304.56.88.84 1.928.84 3.144 0 .96-.2 1.792-.6 2.496a4.049 4.049 0 01-1.656 1.584c-.688.368-1.488.552-2.4.552zm6.76-.216V9.56h7.536v2.016h-4.824v6.432h3.912v1.92h-3.912v7.128h4.872V29h-7.584zm14.357.216c-1.12 0-2.056-.24-2.808-.72-.736-.48-1.296-1.144-1.68-1.992-.384-.848-.608-1.832-.672-2.952l2.4-.648c.048.688.152 1.352.312 1.992.176.64.456 1.168.84 1.584.384.4.92.6 1.608.6.704 0 1.232-.192 1.584-.576.368-.4.552-.968.552-1.704 0-.88-.2-1.584-.6-2.112-.4-.544-.904-1.088-1.512-1.632l-3.264-2.88c-.64-.56-1.112-1.168-1.416-1.824-.304-.672-.456-1.496-.456-2.472 0-1.424.408-2.528 1.224-3.312.816-.784 1.928-1.176 3.336-1.176.768 0 1.44.104 2.016.312.592.192 1.08.496 1.464.912.4.416.712.944.936 1.584.24.624.4 1.36.48 2.208l-2.304.624a9.314 9.314 0 00-.288-1.752c-.144-.544-.4-.976-.768-1.296-.352-.336-.864-.504-1.536-.504s-1.2.184-1.584.552c-.368.352-.552.88-.552 1.584 0 .592.096 1.08.288 1.464.208.384.536.776.984 1.176l3.288 2.88c.736.64 1.384 1.408 1.944 2.304.56.88.84 1.928.84 3.144 0 .96-.2 1.792-.6 2.496a4.049 4.049 0 01-1.656 1.584c-.688.368-1.488.552-2.4.552zm11.344 0c-1.12 0-2.056-.24-2.808-.72-.736-.48-1.296-1.144-1.68-1.992-.384-.848-.608-1.832-.672-2.952l2.4-.648c.048.688.152 1.352.312 1.992.176.64.456 1.168.84 1.584.384.4.92.6 1.608.6.704 0 1.232-.192 1.584-.576.368-.4.552-.968.552-1.704 0-.88-.2-1.584-.6-2.112-.4-.544-.904-1.088-1.512-1.632l-3.264-2.88c-.64-.56-1.112-1.168-1.416-1.824-.304-.672-.456-1.496-.456-2.472 0-1.424.408-2.528 1.224-3.312.816-.784 1.928-1.176 3.336-1.176.768 0 1.44.104 2.016.312.592.192 1.08.496 1.464.912.4.416.712.944.936 1.584.24.624.4 1.36.48 2.208l-2.304.624a9.314 9.314 0 00-.288-1.752c-.144-.544-.4-.976-.768-1.296-.352-.336-.864-.504-1.536-.504s-1.2.184-1.584.552c-.368.352-.552.88-.552 1.584 0 .592.096 1.08.288 1.464.208.384.536.776.984 1.176l3.288 2.88c.736.64 1.384 1.408 1.944 2.304.56.88.84 1.928.84 3.144 0 .96-.2 1.792-.6 2.496a4.049 4.049 0 01-1.656 1.584c-.688.368-1.488.552-2.4.552zm6.904-.216V9.56h2.664V29h-2.664zm10.777.216c-1.312 0-2.36-.256-3.144-.768-.784-.512-1.344-1.24-1.68-2.184-.336-.96-.504-2.08-.504-3.36v-7.368c0-1.28.168-2.376.504-3.288.352-.928.912-1.632 1.68-2.112.784-.496 1.832-.744 3.144-.744s2.352.248 3.12.744c.768.496 1.32 1.2 1.656 2.112.352.912.528 2.008.528 3.288v7.392c0 1.264-.176 2.368-.528 3.312-.336.944-.888 1.68-1.656 2.208-.768.512-1.808.768-3.12.768zm0-2.136c.72 0 1.264-.144 1.632-.432.368-.304.616-.72.744-1.248.128-.544.192-1.176.192-1.896v-8.52c0-.72-.064-1.336-.192-1.848-.128-.528-.376-.928-.744-1.2-.368-.288-.912-.432-1.632-.432-.72 0-1.272.144-1.656.432-.368.272-.616.672-.744 1.2-.128.512-.192 1.128-.192 1.848v8.52c0 .72.064 1.352.192 1.896.128.528.376.944.744 1.248.384.288.936.432 1.656.432zm7.969 1.92V9.56h1.848l5.52 12.912V9.56h2.256V29h-1.728l-5.592-13.272V29h-2.304zm-32.993 36.192a2.376 2.376 0 01-1.44-.456 3.424 3.424 0 01-.984-1.2 3.538 3.538 0 01-.36-1.56c0-.864.144-1.592.432-2.184a4.3 4.3 0 011.176-1.488 8.29 8.29 0 011.752-1.08c.672-.304 1.376-.6 2.112-.888v-.984c0-.56-.032-1.024-.096-1.392-.064-.368-.2-.64-.408-.816-.192-.192-.488-.288-.888-.288-.352 0-.64.08-.864.24-.208.16-.36.392-.456.696a3.278 3.278 0 00-.144 1.032v.696l-2.544-.096c.032-1.536.384-2.664 1.056-3.384.672-.736 1.712-1.104 3.12-1.104 1.376 0 2.352.376 2.928 1.128.576.752.864 1.84.864 3.264v6.336c0 .432.008.848.024 1.248.032.4.064.776.096 1.128.048.336.088.656.12.96h-2.352a50.39 50.39 0 00-.192-.96c-.064-.4-.112-.76-.144-1.08-.16.544-.472 1.056-.936 1.536-.448.464-1.072.696-1.872.696zm1.008-2.208c.256 0 .496-.072.72-.216a3.59 3.59 0 00.6-.48c.176-.192.296-.344.36-.456v-3.936c-.4.224-.776.448-1.128.672a6.279 6.279 0 00-.936.72c-.256.24-.464.52-.624.84a2.44 2.44 0 00-.216 1.056c0 .56.104 1 .312 1.32.208.32.512.48.912.48zM119.009 65V51.128h2.568v1.968c.512-.848 1.024-1.416 1.536-1.704.512-.288 1.024-.432 1.536-.432h.168c.064 0 .144.008.24.024v2.832a3.366 3.366 0 00-.672-.192 2.875 2.875 0 00-.744-.096c-.4 0-.768.096-1.104.288-.32.176-.64.528-.96 1.056V65h-2.568zm11.335.192c-.72 0-1.304-.136-1.752-.408a2.435 2.435 0 01-.96-1.152c-.192-.496-.288-1.08-.288-1.752v-9.048h-1.464v-1.704h1.464v-4.056h2.568v4.056h2.232v1.704h-2.232v8.88c0 .544.088.936.264 1.176.176.224.512.336 1.008.336.128 0 .272-.008.432-.024l.504-.048v1.896c-.32.048-.616.08-.888.096a7.626 7.626 0 01-.888.048zm3.854-.192V51.128h2.568V65h-2.568zm0-15.936v-2.688h2.568v2.688h-2.568zm8.533 16.128c-1.136 0-2.048-.352-2.736-1.056-.688-.72-1.08-1.664-1.176-2.832l2.136-.648c.128.88.344 1.544.648 1.992.304.432.752.648 1.344.648.464 0 .816-.128 1.056-.384.24-.272.36-.632.36-1.08 0-.4-.088-.76-.264-1.08-.176-.32-.464-.648-.864-.984l-2.376-2.04a6.708 6.708 0 01-1.224-1.392c-.32-.512-.48-1.176-.48-1.992 0-.736.144-1.352.432-1.848.304-.512.72-.896 1.248-1.152.544-.272 1.176-.408 1.896-.408 1.104 0 1.944.36 2.52 1.08.592.704.928 1.56 1.008 2.568l-1.728.648a5.992 5.992 0 00-.288-1.248c-.128-.368-.304-.648-.528-.84-.224-.208-.52-.312-.888-.312-.416 0-.752.144-1.008.432-.24.272-.36.6-.36.984 0 .24.048.48.144.72.112.224.296.448.552.672l2.448 2.256c.336.304.648.632.936.984.304.352.552.752.744 1.2.192.448.288.968.288 1.56 0 .784-.16 1.44-.48 1.968-.32.528-.768.928-1.344 1.2-.576.256-1.248.384-2.016.384zm9.456 0c-.72 0-1.304-.136-1.752-.408a2.435 2.435 0 01-.96-1.152c-.192-.496-.288-1.08-.288-1.752v-9.048h-1.464v-1.704h1.464v-4.056h2.568v4.056h2.232v1.704h-2.232v8.88c0 .544.088.936.264 1.176.176.224.512.336 1.008.336.128 0 .272-.008.432-.024l.504-.048v1.896c-.32.048-.616.08-.888.096a7.626 7.626 0 01-.888.048z" fill="#000"/><defs><clipPath id="clip0_18_416"><path fill="#fff" transform="translate(0 3)" d="M0 0h68v65H0z"/></clipPath></defs></svg>