<svg width="156" height="72" viewBox="0 0 156 72" fill="none" xmlns="http://www.w3.org/2000/svg">
<g clip-path="url(#clip0_18_416)">
<path d="M13.2937 64.4297C13.2878 64.4297 13.2878 64.4386 13.2937 64.4386C13.2996 64.4386 13.2996 64.4297 13.2937 64.4297Z" fill="#534741"/>
<path d="M66.6612 26.206L64.9138 26.2887C65.7313 29.0954 66.3458 32.5472 66.3458 35.5C66.3458 39.6631 65.5338 43.7022 63.9345 47.5042C62.3901 51.1765 60.1764 54.474 57.3592 57.3054C54.542 60.1369 51.2584 62.3619 47.6073 63.9141C43.8245 65.5214 39.8058 66.3375 35.6636 66.3375C31.5215 66.3375 27.5027 65.5214 23.7199 63.9141C20.066 62.3619 16.7852 60.1369 13.968 57.3054C11.1508 54.474 8.93708 51.1738 7.39269 47.5042C5.79343 43.7022 4.98146 39.6631 4.98146 35.5C4.98146 31.3369 5.79343 27.2978 7.39269 23.4958C8.93708 19.8235 11.1508 16.526 13.968 13.6946C16.788 10.8603 20.0688 8.63815 23.7227 7.08318C27.5055 5.47582 31.5242 4.65974 35.6664 4.65974C41.9756 4.65974 48.038 6.57037 53.1924 10.1821C57.8996 13.4795 61.5535 17.968 63.8193 23.2146H62.1542H62.1268H59.1148H52.5203H51.3901V24.8771H52.5203H59.9186H62.1268H62.1542H66.2607L65.8246 23.7467C63.4929 17.7033 59.4522 12.5421 54.1387 8.82011C48.7018 5.01264 42.313 3 35.6636 3C31.2993 3 27.0638 3.8602 23.078 5.55302C19.2266 7.1907 15.7703 9.53419 12.7994 12.5201C9.83135 15.5032 7.49967 18.9798 5.87024 22.8479C4.1832 26.8539 3.33008 31.1108 3.33008 35.4972C3.33008 39.8837 4.18594 44.1406 5.87024 48.1465C7.49967 52.0174 9.83135 55.4913 12.7994 58.4772C15.7675 61.4603 19.2266 63.8038 23.078 65.4415C27.0638 67.137 31.2993 67.9945 35.6636 67.9945C40.028 67.9945 44.2634 67.1343 48.2492 65.4415C52.1006 63.8038 55.5569 61.4603 58.5278 58.4772C61.4959 55.4941 63.8276 52.0174 65.457 48.1465C67.144 44.1406 67.9971 39.8837 67.9971 35.4972C67.9999 32.3901 67.5226 29.1643 66.6612 26.206Z" fill="#007163"/>
<path d="M50.9676 21.9905H45.2207C44.9903 21.9905 44.801 22.178 44.801 22.4123V25.4726C44.801 25.7042 44.9903 25.8944 45.2207 25.8944H50.9676C51.1212 25.8944 51.2557 25.809 51.3297 25.6849C51.3544 25.6436 51.3709 25.5994 51.3818 25.5498C51.3873 25.525 51.3901 25.4974 51.3901 25.4726V22.4123C51.3901 22.4013 51.3873 22.3902 51.3873 22.3765C51.3681 22.1614 51.1898 21.9905 50.9676 21.9905Z" fill="#A67C52"/>
<path d="M58.4648 22.065C52.1144 11.3539 38.6785 5.83707 25.6924 10.8907C16.9006 14.3122 9.34044 24.9296 8.96737 34.3973C8.16911 54.6505 28.4849 68.5625 47.1713 59.9137C55.173 56.2082 60.7691 48.6291 61.9514 39.8534C62.6371 34.7695 61.9706 30.0411 60.3301 25.878H52.5177V26.2337C52.5177 26.4625 52.3339 26.65 52.1034 26.65H44.2059C43.9782 26.65 43.7917 26.4652 43.7917 26.2337V21.5219C43.7917 21.293 43.9755 21.1056 44.2059 21.1056H52.1034C52.3311 21.1056 52.5177 21.2903 52.5177 21.5219V22.065H58.4648ZM21.7806 52.7178C18.028 49.6961 15.6716 45.3841 15.1449 40.5813L17.1475 40.3607C17.6138 44.6259 19.7068 48.4554 23.0397 51.138C26.3727 53.8234 30.545 55.042 34.7887 54.5705L35.0081 56.5832C30.2323 57.1125 25.5333 55.7395 21.7806 52.7178ZM20.3981 39.3765L22.8011 39.109C23.4677 45.1938 28.9183 49.5858 34.9725 48.9158L35.2385 51.331C27.8677 52.1498 21.2101 46.7846 20.3981 39.3765ZM43.9535 37.4107C43.5503 39.8452 42.0498 41.9708 39.8964 43.1564C33.4116 46.7323 25.9996 41.447 27.2148 34.1133C27.6181 31.6788 29.1186 29.5531 31.2719 28.3676C37.7595 24.7917 45.1715 30.077 43.9535 37.4107Z" fill="#1A2535"/>
<path d="M3.6483 53.0789C3.62636 52.9162 3.60441 52.7536 3.58247 52.5909C3.49468 52.2794 3.33833 52.0119 3.11339 51.7831C2.98994 51.6866 2.8665 51.5929 2.74306 51.4964C2.45777 51.3309 2.15328 51.2482 1.8241 51.2455C1.57448 51.2372 1.33857 51.2896 1.12186 51.4026C0.896919 51.4771 0.699413 51.6039 0.534823 51.7803C0.356519 51.9458 0.230334 52.1443 0.159012 52.3703C0.0437992 52.5882 -0.00832069 52.8253 0.00265191 53.0762C0.0245971 53.2388 0.0465424 53.4015 0.0684876 53.5641C0.156268 53.8757 0.312628 54.1431 0.537567 54.372C0.661008 54.4685 0.78445 54.5622 0.907892 54.6587C1.19318 54.8241 1.49767 54.9068 1.82685 54.9096C2.07922 54.9179 2.31239 54.8655 2.52909 54.7524C2.75403 54.678 2.95154 54.5512 3.11613 54.3747C3.29443 54.2093 3.42062 54.0108 3.49194 53.7847C3.60441 53.5669 3.65653 53.3326 3.6483 53.0789Z" fill="#007163"/>
</g>
<path d="M86.096 29.216C84.976 29.216 84.04 28.976 83.288 28.496C82.552 28.016 81.992 27.352 81.608 26.504C81.224 25.656 81 24.672 80.936 23.552L83.336 22.904C83.384 23.592 83.488 24.256 83.648 24.896C83.824 25.536 84.104 26.064 84.488 26.48C84.872 26.88 85.408 27.08 86.096 27.08C86.8 27.08 87.328 26.888 87.68 26.504C88.048 26.104 88.232 25.536 88.232 24.8C88.232 23.92 88.032 23.216 87.632 22.688C87.232 22.144 86.728 21.6 86.12 21.056L82.856 18.176C82.216 17.616 81.744 17.008 81.44 16.352C81.136 15.68 80.984 14.856 80.984 13.88C80.984 12.456 81.392 11.352 82.208 10.568C83.024 9.784 84.136 9.392 85.544 9.392C86.312 9.392 86.984 9.496 87.56 9.704C88.152 9.896 88.64 10.2 89.024 10.616C89.424 11.032 89.736 11.56 89.96 12.2C90.2 12.824 90.36 13.56 90.44 14.408L88.136 15.032C88.088 14.392 87.992 13.808 87.848 13.28C87.704 12.736 87.448 12.304 87.08 11.984C86.728 11.648 86.216 11.48 85.544 11.48C84.872 11.48 84.344 11.664 83.96 12.032C83.592 12.384 83.408 12.912 83.408 13.616C83.408 14.208 83.504 14.696 83.696 15.08C83.904 15.464 84.232 15.856 84.68 16.256L87.968 19.136C88.704 19.776 89.352 20.544 89.912 21.44C90.472 22.32 90.752 23.368 90.752 24.584C90.752 25.544 90.552 26.376 90.152 27.08C89.752 27.768 89.2 28.296 88.496 28.664C87.808 29.032 87.008 29.216 86.096 29.216ZM92.8558 29V9.56H100.392V11.576H95.5678V18.008H99.4798V19.928H95.5678V27.056H100.44V29H92.8558ZM107.213 29.216C106.093 29.216 105.157 28.976 104.405 28.496C103.669 28.016 103.109 27.352 102.725 26.504C102.341 25.656 102.117 24.672 102.053 23.552L104.453 22.904C104.501 23.592 104.605 24.256 104.765 24.896C104.941 25.536 105.221 26.064 105.605 26.48C105.989 26.88 106.525 27.08 107.213 27.08C107.917 27.08 108.445 26.888 108.797 26.504C109.165 26.104 109.349 25.536 109.349 24.8C109.349 23.92 109.149 23.216 108.749 22.688C108.349 22.144 107.845 21.6 107.237 21.056L103.973 18.176C103.333 17.616 102.861 17.008 102.557 16.352C102.253 15.68 102.101 14.856 102.101 13.88C102.101 12.456 102.509 11.352 103.325 10.568C104.141 9.784 105.253 9.392 106.661 9.392C107.429 9.392 108.101 9.496 108.677 9.704C109.269 9.896 109.757 10.2 110.141 10.616C110.541 11.032 110.853 11.56 111.077 12.2C111.317 12.824 111.477 13.56 111.557 14.408L109.253 15.032C109.205 14.392 109.109 13.808 108.965 13.28C108.821 12.736 108.565 12.304 108.197 11.984C107.845 11.648 107.333 11.48 106.661 11.48C105.989 11.48 105.461 11.664 105.077 12.032C104.709 12.384 104.525 12.912 104.525 13.616C104.525 14.208 104.621 14.696 104.813 15.08C105.021 15.464 105.349 15.856 105.797 16.256L109.085 19.136C109.821 19.776 110.469 20.544 111.029 21.44C111.589 22.32 111.869 23.368 111.869 24.584C111.869 25.544 111.669 26.376 111.269 27.08C110.869 27.768 110.317 28.296 109.613 28.664C108.925 29.032 108.125 29.216 107.213 29.216ZM118.557 29.216C117.437 29.216 116.501 28.976 115.749 28.496C115.013 28.016 114.453 27.352 114.069 26.504C113.685 25.656 113.461 24.672 113.397 23.552L115.797 22.904C115.845 23.592 115.949 24.256 116.109 24.896C116.285 25.536 116.565 26.064 116.949 26.48C117.333 26.88 117.869 27.08 118.557 27.08C119.261 27.08 119.789 26.888 120.141 26.504C120.509 26.104 120.693 25.536 120.693 24.8C120.693 23.92 120.493 23.216 120.093 22.688C119.693 22.144 119.189 21.6 118.581 21.056L115.317 18.176C114.677 17.616 114.205 17.008 113.901 16.352C113.597 15.68 113.445 14.856 113.445 13.88C113.445 12.456 113.853 11.352 114.669 10.568C115.485 9.784 116.597 9.392 118.005 9.392C118.773 9.392 119.445 9.496 120.021 9.704C120.613 9.896 121.101 10.2 121.485 10.616C121.885 11.032 122.197 11.56 122.421 12.2C122.661 12.824 122.821 13.56 122.901 14.408L120.597 15.032C120.549 14.392 120.453 13.808 120.309 13.28C120.165 12.736 119.909 12.304 119.541 11.984C119.189 11.648 118.677 11.48 118.005 11.48C117.333 11.48 116.805 11.664 116.421 12.032C116.053 12.384 115.869 12.912 115.869 13.616C115.869 14.208 115.965 14.696 116.157 15.08C116.365 15.464 116.693 15.856 117.141 16.256L120.429 19.136C121.165 19.776 121.813 20.544 122.373 21.44C122.933 22.32 123.213 23.368 123.213 24.584C123.213 25.544 123.013 26.376 122.613 27.08C122.213 27.768 121.661 28.296 120.957 28.664C120.269 29.032 119.469 29.216 118.557 29.216ZM125.461 29V9.56H128.125V29H125.461ZM136.238 29.216C134.926 29.216 133.878 28.96 133.094 28.448C132.31 27.936 131.75 27.208 131.414 26.264C131.078 25.304 130.91 24.184 130.91 22.904V15.536C130.91 14.256 131.078 13.16 131.414 12.248C131.766 11.32 132.326 10.616 133.094 10.136C133.878 9.64 134.926 9.392 136.238 9.392C137.55 9.392 138.59 9.64 139.358 10.136C140.126 10.632 140.678 11.336 141.014 12.248C141.366 13.16 141.542 14.256 141.542 15.536V22.928C141.542 24.192 141.366 25.296 141.014 26.24C140.678 27.184 140.126 27.92 139.358 28.448C138.59 28.96 137.55 29.216 136.238 29.216ZM136.238 27.08C136.958 27.08 137.502 26.936 137.87 26.648C138.238 26.344 138.486 25.928 138.614 25.4C138.742 24.856 138.806 24.224 138.806 23.504V14.984C138.806 14.264 138.742 13.648 138.614 13.136C138.486 12.608 138.238 12.208 137.87 11.936C137.502 11.648 136.958 11.504 136.238 11.504C135.518 11.504 134.966 11.648 134.582 11.936C134.214 12.208 133.966 12.608 133.838 13.136C133.71 13.648 133.646 14.264 133.646 14.984V23.504C133.646 24.224 133.71 24.856 133.838 25.4C133.966 25.928 134.214 26.344 134.582 26.648C134.966 26.936 135.518 27.08 136.238 27.08ZM144.207 29V9.56H146.055L151.575 22.472V9.56H153.831V29H152.103L146.511 15.728V29H144.207ZM111.214 65.192C110.67 65.192 110.19 65.04 109.774 64.736C109.358 64.416 109.03 64.016 108.79 63.536C108.55 63.04 108.43 62.52 108.43 61.976C108.43 61.112 108.574 60.384 108.862 59.792C109.15 59.2 109.542 58.704 110.038 58.304C110.55 57.888 111.134 57.528 111.79 57.224C112.462 56.92 113.166 56.624 113.902 56.336V55.352C113.902 54.792 113.87 54.328 113.806 53.96C113.742 53.592 113.606 53.32 113.398 53.144C113.206 52.952 112.91 52.856 112.51 52.856C112.158 52.856 111.87 52.936 111.646 53.096C111.438 53.256 111.286 53.488 111.19 53.792C111.094 54.08 111.046 54.424 111.046 54.824V55.52L108.502 55.424C108.534 53.888 108.886 52.76 109.558 52.04C110.23 51.304 111.27 50.936 112.678 50.936C114.054 50.936 115.03 51.312 115.606 52.064C116.182 52.816 116.47 53.904 116.47 55.328V61.664C116.47 62.096 116.478 62.512 116.494 62.912C116.526 63.312 116.558 63.688 116.59 64.04C116.638 64.376 116.678 64.696 116.71 65H114.358C114.31 64.744 114.246 64.424 114.166 64.04C114.102 63.64 114.054 63.28 114.022 62.96C113.862 63.504 113.55 64.016 113.086 64.496C112.638 64.96 112.014 65.192 111.214 65.192ZM112.222 62.984C112.478 62.984 112.718 62.912 112.942 62.768C113.166 62.624 113.366 62.464 113.542 62.288C113.718 62.096 113.838 61.944 113.902 61.832V57.896C113.502 58.12 113.126 58.344 112.774 58.568C112.422 58.792 112.11 59.032 111.838 59.288C111.582 59.528 111.374 59.808 111.214 60.128C111.07 60.432 110.998 60.784 110.998 61.184C110.998 61.744 111.102 62.184 111.31 62.504C111.518 62.824 111.822 62.984 112.222 62.984ZM119.009 65V51.128H121.577V53.096C122.089 52.248 122.601 51.68 123.113 51.392C123.625 51.104 124.137 50.96 124.649 50.96C124.713 50.96 124.769 50.96 124.817 50.96C124.881 50.96 124.961 50.968 125.057 50.984V53.816C124.865 53.736 124.641 53.672 124.385 53.624C124.145 53.56 123.897 53.528 123.641 53.528C123.241 53.528 122.873 53.624 122.537 53.816C122.217 53.992 121.897 54.344 121.577 54.872V65H119.009ZM130.344 65.192C129.624 65.192 129.04 65.056 128.592 64.784C128.16 64.512 127.84 64.128 127.632 63.632C127.44 63.136 127.344 62.552 127.344 61.88V52.832H125.88V51.128H127.344V47.072H129.912V51.128H132.144V52.832H129.912V61.712C129.912 62.256 130 62.648 130.176 62.888C130.352 63.112 130.688 63.224 131.184 63.224C131.312 63.224 131.456 63.216 131.616 63.2C131.792 63.184 131.96 63.168 132.12 63.152V65.048C131.8 65.096 131.504 65.128 131.232 65.144C130.96 65.176 130.664 65.192 130.344 65.192ZM134.198 65V51.128H136.766V65H134.198ZM134.198 49.064V46.376H136.766V49.064H134.198ZM142.731 65.192C141.595 65.192 140.683 64.84 139.995 64.136C139.307 63.416 138.915 62.472 138.819 61.304L140.955 60.656C141.083 61.536 141.299 62.2 141.603 62.648C141.907 63.08 142.355 63.296 142.947 63.296C143.411 63.296 143.763 63.168 144.003 62.912C144.243 62.64 144.363 62.28 144.363 61.832C144.363 61.432 144.275 61.072 144.099 60.752C143.923 60.432 143.635 60.104 143.235 59.768L140.859 57.728C140.379 57.312 139.971 56.848 139.635 56.336C139.315 55.824 139.155 55.16 139.155 54.344C139.155 53.608 139.299 52.992 139.587 52.496C139.891 51.984 140.307 51.6 140.835 51.344C141.379 51.072 142.011 50.936 142.731 50.936C143.835 50.936 144.675 51.296 145.251 52.016C145.843 52.72 146.179 53.576 146.259 54.584L144.531 55.232C144.467 54.752 144.371 54.336 144.243 53.984C144.115 53.616 143.939 53.336 143.715 53.144C143.491 52.936 143.195 52.832 142.827 52.832C142.411 52.832 142.075 52.976 141.819 53.264C141.579 53.536 141.459 53.864 141.459 54.248C141.459 54.488 141.507 54.728 141.603 54.968C141.715 55.192 141.899 55.416 142.155 55.64L144.603 57.896C144.939 58.2 145.251 58.528 145.539 58.88C145.843 59.232 146.091 59.632 146.283 60.08C146.475 60.528 146.571 61.048 146.571 61.64C146.571 62.424 146.411 63.08 146.091 63.608C145.771 64.136 145.323 64.536 144.747 64.808C144.171 65.064 143.499 65.192 142.731 65.192ZM152.187 65.192C151.467 65.192 150.883 65.056 150.435 64.784C150.003 64.512 149.683 64.128 149.475 63.632C149.283 63.136 149.187 62.552 149.187 61.88V52.832H147.723V51.128H149.187V47.072H151.755V51.128H153.987V52.832H151.755V61.712C151.755 62.256 151.843 62.648 152.019 62.888C152.195 63.112 152.531 63.224 153.027 63.224C153.155 63.224 153.299 63.216 153.459 63.2C153.635 63.184 153.803 63.168 153.963 63.152V65.048C153.643 65.096 153.347 65.128 153.075 65.144C152.803 65.176 152.507 65.192 152.187 65.192Z" fill="black"/>
<defs>
<clipPath id="clip0_18_416">
<rect width="68" height="65" fill="white" transform="translate(0 3)"/>
</clipPath>
</defs>
</svg>
