<svg width="40" height="40"><path d="M20 0C8.972 0 0 8.972 0 20c0 11.027 8.972 20 20 20 11.027 0 20-8.973 20-20C40 8.972 31.029 0 20 0zm8.922 15.422c.009.199.014.398.014.598 0 6.083-4.63 13.095-13.099 13.095-2.6 0-5.02-.76-7.056-2.066.36.043.727.064 1.098.064a9.24 9.24 0 005.718-1.97 4.608 4.608 0 01-4.3-3.198 4.638 4.638 0 002.078-.077 4.604 4.604 0 01-3.692-4.514v-.058c.62.344 1.33.552 2.085.576A4.6 4.6 0 019.72 14.04c0-.844.227-1.636.623-2.315a13.071 13.071 0 009.488 4.81 4.6 4.6 0 01-.119-1.049 4.603 4.603 0 017.963-3.15 9.19 9.19 0 002.924-1.117 4.624 4.624 0 01-2.026 2.547 9.156 9.156 0 002.643-.724 9.26 9.26 0 01-2.294 2.38z"/></svg>